PathFileType	4	(X/Y/Z)	Patient4_TMGait_0pt3_02_left_20.trc.trc
DataRate	CameraRate	NumFrames	NumMarkers	Units	OrigDataRate	OrigDataStartFrame	OrigNumFrames
50.000000000000	50.000000000000	5	33	mm	50.000000000000	1	       141
Frame#	Time	Sacral			L.Shoulder			Chest			R.Shoulder			Neck			R.ASIS			L.ASIS			R.Thigh.Superior			R.Thigh.Lateral			R.Thigh.Inferior			R.Patella			L.Thigh.Superior			L.Thigh.Lateral			L.Thigh.Inferior			L.Patella			L.Shank.Superior			L.Shank.Lateral			L.Shank.Inferior			R.Shank.Superior			R.Shank.Lateral			R.Shank.Inferior			R.Heel			R.Midfoot.Superior			R.Midfoot.Lateral			R.Toe			L.Heel			L.Midfoot.Lateral			L.Midfoot.Superior			L.Toe			L.Elbow			L.Wrist			R.Elbow			R.Wrist			
		X1	Y1	Z1	X2	Y2	Z2	X3	Y3	Z3	X4	Y4	Z4	X5	Y5	Z5	X6	Y6	Z6	X7	Y7	Z7	X8	Y8	Z8	X9	Y9	Z9	X10	Y10	Z10	X11	Y11	Z11	X12	Y12	Z12	X13	Y13	Z13	X14	Y14	Z14	X15	Y15	Z15	X16	Y16	Z16	X17	Y17	Z17	X18	Y18	Z18	X19	Y19	Z19	X20	Y20	Z20	X21	Y21	Z21	X22	Y22	Z22	X23	Y23	Z23	X24	Y24	Z24	X25	Y25	Z25	X26	Y26	Z26	X27	Y27	Z27	X28	Y28	Z28	X29	Y29	Z29	X30	Y30	Z30	X31	Y31	Z31	X32	Y32	Z32	X33	Y33	Z33	

1	39.080000000000	724.857937929051	993.458895432105	544.090537113557	911.502360889050	1425.469645163176	369.214457199191	1002.752579959780	1357.344016124999	536.639639325589	907.825631982251	1429.507679323383	704.720445497068	883.762386189447	1487.299193807188	526.442045441239	957.332608747998	934.819083546128	665.368103847114	943.234863927506	953.867600661276	391.449791373342	1010.890109578266	738.341019106359	625.103523122740	936.061086770046	620.420564405259	677.055860843908	1016.547488011127	576.196776875397	594.505653094020	1022.212313656190	482.341807361668	596.487763113674	1008.960643784053	748.481166635785	416.568891999555	944.005878129194	627.645602531309	340.545924924891	1036.091005189395	550.999424628840	404.845412042550	1033.050338097514	461.107235394941	396.019578460293	956.996560413637	405.772405472299	384.017623912874	812.005803046267	386.046176502040	330.529164978798	779.079920710775	257.292086129887	379.050745103399	982.276709370126	394.257252000436	598.213091730357	902.618690690706	295.500827555131	657.814660841379	930.370224535619	200.274136980502	589.712504321621	780.183241834607	43.642498729133	560.249657862070	952.707681434441	96.772023642776	593.278479569936	864.509871386402	37.340432275854	633.159947841898	1072.811150508012	42.195785257640	618.899729443180	580.115421842580	224.712901566595	409.143999462251	631.402512306705	168.173632710257	331.274013424904	736.598823012574	157.477518867268	354.953033119013	794.094808859310	33.318210735066	330.451468070239	958.679695928748	1079.416653021221	241.078020654993	1138.658787367986	886.514648795967	240.192381043199	861.806905681034	1084.856937103529	833.190492421806	970.551756636358	847.993868422824	865.893206979107	
2	39.100000000000	723.793046590839	991.082448121901	548.396996390084	907.821859538064	1422.858947260181	370.993363268857	1001.731272204484	1355.029788077320	537.037910615628	909.758226543517	1427.402426111106	706.613577575048	883.174573068175	1485.246947079167	528.481568173904	957.593464133861	932.518886396634	666.385763668245	940.164570572485	952.894322404532	392.860429990813	1011.648493662765	736.554495559943	624.766016101409	938.145304507210	618.027504110609	676.726767005820	1017.944115540339	574.496803589151	593.155277347038	1023.693127027635	479.974915350480	594.662802068055	1010.548948745092	751.237244692963	418.530345695681	949.416400501485	629.043817677055	342.589162903343	1043.384502332508	555.036449457561	407.068679226860	1043.012737927661	464.984793356870	397.720532880036	968.290725877662	408.016289003786	385.274185441433	823.031558745732	384.989785890704	333.721503699334	794.821310628417	254.780765339460	380.628695687506	982.293637310502	392.044547695289	596.850593924073	901.408734645162	294.478759752913	656.997235378068	926.824480325361	199.033952024009	588.833208811747	774.160638159402	43.821032206613	560.261386772328	946.648497401164	96.448286586718	592.719537996692	858.530414889858	37.430271054664	633.135744152718	1066.812557478349	41.881966526206	618.929535581556	597.642521327421	213.806671291565	413.635471533766	649.336748881565	162.587487710765	333.106669135396	754.960016307108	155.758981154666	354.981652794281	816.826241138874	35.630229086514	324.830481258787	942.207435598901	1073.740423559086	247.599429529472	1101.258831157605	868.171878977634	245.361702274237	877.040938712710	1081.671351115234	835.322535395418	999.816714998536	853.135485306260	865.052220245508	
3	39.120000000000	722.701758178629	988.785897650185	552.814655047956	903.984187964986	1420.313430231038	372.772980091805	1000.684838839733	1352.771757760085	537.334789040870	911.822914265136	1425.356489863177	708.466788976497	882.572418461575	1483.253636700203	530.516839405081	957.880035504638	930.259923904975	667.323966095219	936.950548362359	951.949477810412	394.225485352800	1012.258779544588	734.753118227762	624.359787737024	940.056691802970	615.670532890714	676.443542101038	1019.073376282749	572.781440007929	591.787780818469	1024.860049384272	477.617286137762	592.850340141421	1011.919089162720	754.033085666322	420.395699527061	954.590376550958	630.532899363343	344.519098592130	1050.387053073346	559.154787016200	409.186908613915	1052.754421005183	469.061441358528	399.279737678066	979.661236465434	410.349506160282	386.375927592402	834.415526109189	383.289932391734	336.742759840315	811.617552348895	251.664934650881	382.034188056559	982.017978309844	389.847268377040	595.516115160679	899.954572708597	293.452341906101	656.236311660519	923.058765292864	197.802214315117	587.984233875066	767.959886418268	43.983725963478	560.281580640239	940.436196629419	96.176956419751	592.258626186237	852.366884543994	37.511061192531	633.116894776288	1060.635671190101	41.571997284550	618.959222293114	616.795035687922	201.422965329029	417.900228157633	668.950300104546	155.715726111726	334.781283210865	774.853169801446	153.299777924045	354.879136442965	841.495572767016	37.681014235886	319.213013286049	925.015299234011	1068.312203108570	254.161788582582	1062.643665151170	850.508611557923	250.795239572138	892.771534589932	1078.688993568272	837.336309398492	1029.946460885288	859.174664624828	863.787232611866	
4	39.140000000000	721.616231010579	986.712876915654	557.237373061430	900.051161947162	1417.976550549194	374.492365708244	999.640275647219	1350.691691201479	537.464619490727	914.023505672686	1423.488708161044	710.185898979740	881.973706972143	1481.435420814649	532.471018789800	958.188430874635	928.158679529977	668.114397017655	933.632134823392	951.096988992106	395.476648247962	1012.606777321848	733.001902465613	623.876190477969	941.607691945699	613.461973587135	676.227705960747	1019.736389611311	571.111928288071	590.455006118571	1025.485089495995	475.366035687377	591.131510705153	1012.898713259035	756.796911569490	422.059856575997	959.206786024795	632.109015001976	346.212234965974	1056.690156577809	563.250295485329	411.067126919056	1061.812969111003	473.307173943683	400.573799419364	990.732396330819	412.764758028394	387.216182416533	845.965947232116	380.764665652890	339.389083101864	829.393890354285	247.872125637897	383.135063248064	981.284881397371	387.762078759212	594.277640966310	898.156379705487	292.464310745184	655.588646116703	919.070417809091	196.634911750763	587.215763109290	761.690827442677	44.123988293012	560.314031462871	934.175104287505	95.963602132300	591.913559184626	846.128098858392	37.577299642234	633.108905124244	1054.390232425239	41.278090948117	618.987610556326	637.705488111339	187.467422750071	421.666131865762	690.399677080488	147.345366381247	336.158646202594	796.336518812015	149.956864849890	354.591804397718	868.158198214460	39.382417219994	313.829832373149	907.335497011888	1063.499189740776	260.554729576587	1023.594923054931	834.504210093923	256.428895421837	908.728342375063	1076.153334110634	839.093054990559	1060.315077041081	866.426442636969	861.908824700381	
5	39.160000000000	720.557011954160	985.005144644228	561.570438148430	896.076689378126	1415.985945946521	376.102851763191	998.621981754148	1348.902845580187	537.369719273494	916.370776788382	1421.910713906489	711.687872901533	881.396652580635	1479.902299910601	534.279792703064	958.507846916532	926.324136690040	668.703736638956	930.250534967713	950.408493304481	396.555870053863	1012.585877163648	731.362660126877	623.321573765247	942.620786178373	611.504547280832	676.103508220824	1019.751187565293	569.546023147800	589.212564311717	1025.358976449201	473.309043378198	589.586879525578	1013.335404359405	759.476415367335	423.449129863166	962.990401340034	633.772978632949	347.571999020674	1061.954820112962	567.242055472657	412.597976467036	1069.807726520297	477.706609344220	401.508054214512	1001.190060936145	415.279221838648	387.719152295772	857.553216076505	377.329471314805	341.482300634035	848.077894455991	243.444437677978	383.830712400551	979.936706193968	385.877893727840	593.199168298433	895.908742489443	291.556475898286	655.105107717236	914.837685900529	195.584448033597	586.573555029110	755.427066070951	44.239805251751	560.362432455559	927.936064123323	95.811329657715	591.697553912412	839.888475721706	37.625218803511	633.116663503213	1048.150316444894	41.009361997807	619.013827198940	660.477355255885	172.043250745057	424.697701639140	713.816716694671	137.458621560905	337.122435350826	819.445201936872	145.730751370889	354.087000917172	896.813058216444	40.754288351168	308.908639504721	889.348899520244	1059.642862650041	266.604318549451	984.782426960360	820.966572182774	262.210191775768	924.718733962173	1074.290603271411	840.475943340096	1090.416074278340	875.203780288674	859.252982263861	
